<svg version="1.1" id="Layer_1" xmlns="http://www.w3.org/2000/svg" xmlns:xlink="http://www.w3.org/1999/xlink" x="0px" y="0px" width="100px" height="80px" viewBox="0 0 100 80" enable-background="new 0 0 100 80" xml:space="preserve"><path fill="#333E48" d="M85.52,65.778v-2.075h5.504c0.266,0,0.477-0.21,0.477-0.479c0-0.268-0.211-0.477-0.477-0.477h-5.981  c-0.266,0-0.477,0.209-0.477,0.477v2.554c0,0.268,0.211,0.478,0.477,0.478C85.309,66.255,85.52,66.045,85.52,65.778 M91.023,72.235  c0.259,0,0.477-0.218,0.477-0.477c0-0.248-0.212-0.462-0.477-0.478H85.52V67.98h4.641c0.267,0,0.476-0.208,0.476-0.476  c0-0.269-0.209-0.477-0.476-0.477h-5.118c-0.266,0-0.477,0.208-0.477,0.477v4.254c0,0.269,0.211,0.477,0.477,0.477H91.023z   M76.421,63.701c-0.27,0-0.479-0.208-0.479-0.477c0-0.268,0.209-0.477,0.479-0.477h1.613c0.257,0,0.464,0.214,0.464,0.477 c0,0.264-0.207,0.477-0.464,0.477H76.421z M79.624,72.336c-0.268,0-0.479-0.21-0.479-0.477v-8.636c0-0.268,0.211-0.477,0.479-0.477  h3.189c0.268,0,0.477,0.209,0.477,0.477c0,0.269-0.209,0.477-0.477,0.477H80.1v8.159C80.1,72.126,79.89,72.336,79.624,72.336   M68.885,72.052l3.193-7.703l1.643,3.988c0.084,0.185,0.24,0.282,0.448,0.282c0.276,0,0.477-0.194,0.477-0.464  c0-0.079-0.013-0.139-0.041-0.195l-2.09-5.032c-0.073-0.17-0.242-0.281-0.437-0.281s-0.363,0.111-0.435,0.281l-3.642,8.744  c-0.03,0.062-0.042,0.12-0.042,0.199c0,0.27,0.2,0.465,0.478,0.465C68.645,72.336,68.799,72.239,68.885,72.052 M76.196,71.872 c0-0.079-0.013-0.138-0.04-0.195l-0.94-2.219c-0.09-0.176-0.262-0.291-0.435-0.291h-3.804c-0.27,0-0.478,0.21-0.478,0.478 s0.208,0.477,0.478,0.477h3.519l0.776,1.935c0.086,0.184,0.239,0.281,0.447,0.281C75.996,72.336,76.196,72.141,76.196,71.872   M63.981,72.334c-0.193,0-0.363-0.11-0.436-0.28l-3.643-8.747c-0.027-0.058-0.04-0.116-0.04-0.196c0-0.269,0.2-0.464,0.478-0.464  c0.204,0,0.363,0.1,0.447,0.28l3.193,7.708l3.193-7.706c0.086-0.183,0.243-0.282,0.448-0.282c0.277,0,0.479,0.195,0.479,0.464 c0,0.08-0.016,0.139-0.045,0.2l-3.641,8.743C64.348,72.224,64.175,72.334,63.981,72.334 M54.371,63.476 c-2.198,0-3.987,1.801-3.987,4.015c0,2.215,1.789,4.017,3.987,4.017c2.201,0,3.991-1.802,3.991-4.017 C58.362,65.277,56.572,63.476,54.371,63.476 M54.371,72.449c-2.739,0-4.97-2.225-4.97-4.958c0-2.732,2.23-4.956,4.97-4.956  c2.74,0,4.97,2.224,4.97,4.956C59.341,70.224,57.111,72.449,54.371,72.449 M47.327,72.336c-0.154,0-0.309-0.084-0.393-0.212 l-5.525-7.565v7.301c0,0.267-0.209,0.477-0.478,0.477c-0.258,0-0.476-0.219-0.476-0.477v-8.736c0-0.259,0.218-0.477,0.476-0.477 c0.161,0,0.305,0.066,0.394,0.184l5.537,7.594v-7.301c0-0.259,0.219-0.477,0.477-0.477c0.268,0,0.478,0.211,0.478,0.477v8.736 C47.816,72.122,47.597,72.336,47.327,72.336 M38.302,71.86v-8.736c0-0.266-0.211-0.477-0.478-0.477 c-0.259,0-0.477,0.218-0.477,0.477v7.301l-5.539-7.594c-0.087-0.117-0.23-0.184-0.393-0.184c-0.257,0-0.476,0.218-0.476,0.477v8.736 c0,0.258,0.219,0.477,0.476,0.477c0.269,0,0.478-0.21,0.478-0.477v-7.301l5.525,7.565c0.085,0.128,0.238,0.212,0.393,0.212  C38.081,72.336,38.302,72.122,38.302,71.86 M28.313,72.334c-0.268,0-0.476-0.209-0.476-0.475v-8.736  c0-0.266,0.208-0.477,0.476-0.477s0.479,0.211,0.479,0.477v8.736C28.792,72.125,28.581,72.334,28.313,72.334 M22.634,66.81h2.189  c0.488,0,0.889,0.339,0.889,0.752v3.053c0,0.188-0.087,0.364-0.212,0.489c-0.901,0.925-2.153,1.476-3.517,1.476 c-2.778,0-5.031-2.128-5.031-4.906c0-2.776,2.253-4.903,5.031-4.903c1.226,0,2.377,0.474,3.315,1.301 c0.288,0.288,0.251,0.775-0.087,1.114c-0.339,0.338-0.84,0.387-1.114,0.099c-0.563-0.501-1.302-0.801-2.114-0.801 c-1.752,0-3.191,1.427-3.191,3.19c0,1.778,1.439,3.203,3.191,3.203c0.775,0,1.476-0.273,2.039-0.725v-1.626h-1.389  c-0.4,0-0.727-0.389-0.727-0.864C21.907,67.187,22.233,66.81,22.634,66.81 M9.757,70.177c-0.299-0.225-0.812-0.089-1.088,0.262  c-0.263,0.414-0.213,0.902,0.113,1.151l0.037,0.038c0.863,0.602,1.939,0.951,3.141,0.951c2.026,0,3.553-1.076,3.553-2.929 c0-3.892-5.004-2.051-5.004-4.229c0-0.688,0.537-0.976,1.451-0.976c0.813,0,1.389,0.238,2.052,0.65 c0.351,0.214,0.813,0.014,1.052-0.389c0.236-0.412,0.137-0.875-0.201-1.101c-0.789-0.525-1.914-0.837-2.902-0.837 c-1.864,0-3.304,0.948-3.304,2.651c0,3.893,5.005,1.965,5.005,4.229c0,0.813-0.688,1.39-1.701,1.39 C11.108,71.041,10.333,70.615,9.757,70.177"></path><path fill="#333E48" d="M89.129,38.322c1.307,0,2.371-1.062,2.371-2.369c0-0.631-0.251-1.227-0.696-1.672L64.717,8.194 c-0.008-0.012-0.019-0.021-0.03-0.032C64.243,7.735,63.661,7.5,63.042,7.5c-1.302,0-2.368,1.063-2.368,2.369  c0,0.632,0.245,1.225,0.695,1.674l26.086,26.087c0.447,0.448,1.042,0.692,1.671,0.692H89.129z M90.804,11.542 c0.445-0.449,0.696-1.041,0.696-1.676c0-1.304-1.064-2.367-2.371-2.367c-0.632,0-1.229,0.248-1.674,0.695 c-0.45,0.445-0.696,1.04-0.696,1.674c0,1.306,1.065,2.368,2.37,2.368C89.761,12.237,90.358,11.993,90.804,11.542 M84.979,55.519 c0-0.633-0.25-1.228-0.697-1.675l-39.127-39.13c-0.01-0.009-0.016-0.015-0.024-0.022c-0.445-0.433-1.031-0.67-1.65-0.67 c-1.309,0-2.368,1.061-2.368,2.369c0,0.619,0.236,1.202,0.666,1.647c0.01,0.009,0.016,0.019,0.024,0.028l39.134,39.13 c0.007,0.01,0.019,0.02,0.03,0.029c0.443,0.428,1.025,0.662,1.641,0.662C83.914,57.887,84.979,56.827,84.979,55.519 M91.5,22.911  c0-0.62-0.236-1.199-0.668-1.643c-0.006-0.013-0.019-0.022-0.027-0.032L77.762,8.194c-0.012-0.014-0.023-0.026-0.039-0.037  C77.28,7.733,76.701,7.5,76.086,7.5c-1.307,0-2.37,1.062-2.37,2.367c0,0.622,0.239,1.208,0.677,1.654 c0.005,0.007,0.013,0.016,0.018,0.022l13.041,13.043c0.448,0.447,1.046,0.694,1.678,0.694C90.436,25.28,91.5,24.217,91.5,22.911  M71.936,55.519c0-0.635-0.251-1.232-0.703-1.677c0,0-26.074-26.081-26.078-26.085c-0.448-0.446-1.044-0.694-1.675-0.694  c-1.309,0-2.368,1.063-2.368,2.368c0,0.623,0.236,1.206,0.67,1.652c0.006,0.009,0.012,0.017,0.021,0.024l26.089,26.089  c0.012,0.012,0.023,0.027,0.038,0.036c0.443,0.424,1.021,0.655,1.634,0.655C70.867,57.887,71.936,56.827,71.936,55.519   M58.89,55.519c0-0.623-0.238-1.21-0.675-1.656c-0.006-0.004-0.012-0.012-0.018-0.019L45.154,40.801  c-0.008-0.006-0.016-0.01-0.019-0.017c-0.447-0.437-1.034-0.678-1.656-0.678c-1.309,0-2.368,1.064-2.368,2.368  c0,0.617,0.231,1.195,0.655,1.642c0.015,0.014,0.024,0.021,0.035,0.035l13.043,13.045c0.009,0.01,0.021,0.017,0.03,0.028  c0.447,0.429,1.029,0.663,1.646,0.663C57.827,57.887,58.89,56.827,58.89,55.519 M45.847,55.519c0-1.308-1.061-2.368-2.367-2.368 c-1.309,0-2.368,1.061-2.368,2.368s1.06,2.368,2.368,2.368C44.786,57.887,45.847,56.827,45.847,55.519 M23.913,38.322 c0.633,0,1.228-0.244,1.676-0.692c0.004-0.003,13.044-13.043,13.044-13.043c0.009-0.008,0.015-0.015,0.022-0.025  c0.9-0.923,0.895-2.408-0.022-3.325c-0.446-0.448-1.042-0.693-1.679-0.693c-0.631,0-1.225,0.245-1.676,0.697  c-0.008,0.006-0.014,0.012-0.02,0.02c0,0-13.016,13.014-13.021,13.019c-0.922,0.924-0.926,2.426,0,3.351  C22.682,38.078,23.279,38.322,23.913,38.322 M39.325,35.953c0-1.306-1.062-2.369-2.369-2.369c-1.305,0-2.367,1.062-2.367,2.369  c0,1.307,1.062,2.369,2.367,2.369C38.263,38.322,39.325,37.26,39.325,35.953 M13.237,9.869c0-1.306-1.061-2.369-2.369-2.369 C9.564,7.5,8.5,8.562,8.5,9.869s1.064,2.368,2.368,2.368C12.177,12.237,13.237,11.175,13.237,9.869 M10.868,25.28 c0.625,0,1.21-0.236,1.656-0.673c0.006-0.007,0.016-0.015,0.021-0.021l13.043-13.043c0.924-0.925,0.924-2.429,0-3.349 C25.141,7.747,24.546,7.5,23.913,7.5c-0.631,0-1.227,0.248-1.676,0.695C22.234,8.196,9.194,21.236,9.194,21.236 c-0.008,0.01-0.02,0.018-0.027,0.028C8.737,21.711,8.5,22.292,8.5,22.911C8.5,24.216,9.564,25.28,10.868,25.28 M23.913,44.844 c-1.307,0-2.369-1.062-2.369-2.37c0-1.304,1.062-2.368,2.369-2.368c1.309,0,2.369,1.064,2.369,2.368c0,0.636-0.245,1.23-0.693,1.677 s-1.041,0.693-1.672,0.693H23.913z M10.868,57.887c-1.304,0-2.368-1.061-2.368-2.368s1.064-2.368,2.368-2.368 c1.309,0,2.369,1.061,2.369,2.368c0,0.633-0.242,1.226-0.691,1.677C12.099,57.64,11.505,57.887,10.868,57.887"></path><path fill="#FF4612" d="M90.804,50.671c0.445-0.445,0.696-1.038,0.696-1.676c0-0.629-0.248-1.225-0.695-1.671  c-0.003-0.008-39.13-39.131-39.13-39.131c-0.01-0.011-0.02-0.02-0.029-0.029C51.202,7.734,50.62,7.5,50.001,7.5 c-0.635,0-1.231,0.248-1.677,0.694C47.4,9.116,47.4,10.62,48.321,11.542c0.014,0.01,0.023,0.022,0.037,0.033l39.097,39.096  c0.444,0.447,1.042,0.693,1.677,0.693C89.762,51.365,90.358,51.119,90.804,50.671 M10.868,38.322c0.635,0,1.229-0.246,1.678-0.692 l26.087-26.087c0.926-0.923,0.926-2.427,0-3.349c-0.446-0.446-1.042-0.692-1.677-0.692c-0.632,0-1.227,0.246-1.674,0.692  L9.194,34.278c-0.445,0.448-0.691,1.042-0.691,1.674c0,0.635,0.246,1.229,0.691,1.677C9.644,38.076,10.236,38.322,10.868,38.322  M23.913,57.887c0.633,0,1.227-0.247,1.676-0.691c0.448-0.449,0.693-1.043,0.693-1.677c0-0.635-0.245-1.228-0.693-1.675 L12.546,40.802c-0.448-0.449-1.043-0.694-1.678-0.694c-0.632,0-1.225,0.245-1.674,0.692c-0.447,0.445-0.691,1.041-0.691,1.674 c0,0.635,0.244,1.23,0.691,1.677l13.043,13.045C22.687,57.64,23.279,57.887,23.913,57.887 M38.636,44.151 c0.443-0.449,0.69-1.042,0.69-1.677c0-0.632-0.247-1.227-0.693-1.672c-0.446-0.449-1.04-0.694-1.679-0.694  c-0.631,0-1.225,0.245-1.672,0.692c-0.449,0.447-0.693,1.046-0.693,1.678c0,1.305,1.062,2.366,2.367,2.366  C37.591,44.844,38.187,44.598,38.636,44.151 M30.437,57.887c0.633,0,1.227-0.247,1.674-0.691l6.525-6.524 c0.92-0.922,0.92-2.425-0.003-3.35c-0.446-0.446-1.042-0.691-1.679-0.691c-0.631,0-1.225,0.245-1.672,0.691l-6.521,6.522  c-0.445,0.447-0.694,1.04-0.694,1.675c0,0.634,0.249,1.228,0.694,1.677C29.208,57.64,29.805,57.887,30.437,57.887 M30.432,44.844  c-1.304,0-2.365-1.062-2.365-2.37c0-1.304,1.062-2.368,2.37-2.368c1.305,0,2.368,1.064,2.368,2.368c0,1.309-1.065,2.37-2.368,2.37 H30.432z"></path><path fill="#FF4612" d="M38.636,44.151c0.443-0.449,0.69-1.042,0.69-1.677c0-0.632-0.247-1.227-0.693-1.672 c-0.446-0.449-1.04-0.694-1.679-0.694c-0.631,0-1.225,0.245-1.672,0.692c-0.449,0.447-0.693,1.046-0.693,1.678  c0,1.305,1.062,2.366,2.367,2.366C37.591,44.844,38.187,44.598,38.636,44.151"></path><path fill="#FF4612" d="M30.432,44.844c-1.304,0-2.365-1.062-2.365-2.37c0-1.304,1.062-2.368,2.37-2.368  c1.305,0,2.368,1.064,2.368,2.368c0,1.309-1.065,2.37-2.368,2.37H30.432z"></path></svg>